<?xml version="1.0" encoding="utf-8"?>
<!-- Generator: $$$/GeneralStr/196=Adobe Illustrator 27.6.0, SVG Export Plug-In . SVG Version: 6.00 Build 0)  -->
<svg version="1.1" id="Logo" xmlns="http://www.w3.org/2000/svg" xmlns:xlink="http://www.w3.org/1999/xlink" x="0px" y="0px"
	 viewBox="0 0 152.1 57.8" style="enable-background:new 0 0 152.1 57.8;" xml:space="preserve">
<style type="text/css">
	.st0{fill:#2A4466;}
	.st1{fill:#FFFFFF;}
</style>
<g>
	<g>
		<g>
			<path class="st0" d="M56.2,33.9v-5.6c0-0.6,0-0.8,0.2-1.2c0.2-0.3,0.6-0.6,1.1-0.6c0.5,0,0.9,0.2,1.1,0.6
				c0.2,0.3,0.2,0.5,0.2,1.2V42c0,0.6,0,0.8-0.2,1.2c-0.2,0.3-0.6,0.6-1.1,0.6c-0.5,0-0.9-0.2-1.1-0.6c-0.2-0.3-0.2-0.5-0.2-1.2
				v-5.8h-6.9V42c0,0.6,0,0.8-0.2,1.2c-0.2,0.3-0.6,0.6-1.1,0.6s-0.9-0.2-1.1-0.6c-0.2-0.3-0.2-0.5-0.2-1.2V28.3
				c0-0.6,0-0.8,0.2-1.2c0.2-0.3,0.6-0.6,1.1-0.6s0.9,0.2,1.1,0.6c0.2,0.3,0.2,0.5,0.2,1.2v5.6H56.2z"/>
			<path class="st0" d="M63.2,42V28.3c0-0.4,0-0.8,0.4-1.2c0.4-0.4,0.8-0.4,1.2-0.4h4.9c3.3,0,5.4,2.2,5.4,5.1c0,3-2.1,5.1-5.4,5.1
				h-3.9v5c0,0.6,0,0.8-0.2,1.2c-0.2,0.3-0.6,0.6-1.1,0.6c-0.5,0-0.9-0.2-1.1-0.6C63.2,42.8,63.2,42.6,63.2,42z M65.8,34.7h3.7
				c1.8,0,3-1,3-2.8c0-1.8-1.2-2.9-3-2.9h-3.7V34.7z"/>
			<path class="st0" d="M79.3,28.3c1.1-1.1,2.5-1.7,4.4-1.7c2.1,0,3.4,0.6,4.4,1.8c1,1,1.3,2.1,1.3,2.7c0,0.4-0.1,0.7-0.3,1
				c-0.2,0.2-0.5,0.4-0.9,0.4c-0.3,0-0.6-0.1-0.8-0.2c-0.3-0.2-0.4-0.5-0.6-1c-0.6-1.5-1.6-2.3-3.2-2.3c-1,0-1.8,0.4-2.4,1.1
				c-0.9,1-1,2-1,5.3s0.1,4.3,1,5.3c0.6,0.7,1.4,1.1,2.4,1.1c1.6,0,2.5-0.8,3.2-2.3c0.2-0.4,0.4-0.8,0.6-1c0.2-0.1,0.4-0.3,0.8-0.3
				c0.4,0,0.6,0.1,0.9,0.4c0.2,0.2,0.3,0.5,0.3,1c0,0.6-0.3,1.7-1.3,2.7c-1,1.1-2.3,1.8-4.4,1.8c-1.8,0-3.3-0.6-4.4-1.7
				c-1.6-1.6-1.7-3.3-1.7-6.9S77.7,29.9,79.3,28.3z"/>
			<path class="st0" d="M94.2,43.7c-1,0-1.7-0.8-1.7-1.7c0-1,0.8-1.7,1.7-1.7c1,0,1.7,0.8,1.7,1.7C96,42.9,95.2,43.7,94.2,43.7z"/>
		</g>
		<path class="st0" d="M14.2,14.2v22.9c0,3.6,2.9,6.5,6.5,6.5h18.1V20.7c0-3.6-2.9-6.5-6.5-6.5H14.2z"/>
		<g>
			<path class="st1" d="M23.5,40.8c0,0-2.3,0-2.3-2.1v-4.4h-1.9c-2.4,0-2.4-2.2-2.4-2.2h4.3v-5.2h2.3V40.8z"/>
			<path class="st1" d="M31.7,38.7c0,0-2.3-0.2-2.3-2.2v-0.9h2.3V38.7z"/>
			<path class="st1" d="M35.9,34.3H24.8v-2.2h4.6v-6.5h-8.8c0,0-0.3,0-1.2,0c-2.4,0-2.4-2.2-2.4-2.2h4.3v-4.3c0,0,2.3,0,2.3,1.9v2.3
				h5.9V17c0,0,2.3,0,2.3,1.9v13.2h1.9C36.1,32.1,35.9,34.3,35.9,34.3z"/>
			<path class="st1" d="M35.9,25.7h-3v-2.2h0.5C36.1,23.5,35.9,25.7,35.9,25.7z"/>
		</g>
	</g>
	<g>
		<path class="st0" d="M107.9,32.1c-0.6-0.4-1.3-0.5-2.2-0.5c-0.9,0-1.7,0.2-2.5,0.7c-0.4,0.3-0.8,0.6-1,1V33c0-0.4-0.1-0.8-0.3-1
			c-0.2-0.2-0.5-0.4-0.9-0.4c-0.4,0-0.7,0.1-0.9,0.4c-0.2,0.2-0.3,0.6-0.3,1v9.6c0,0.4,0.1,0.8,0.3,1c0.2,0.2,0.5,0.4,0.9,0.4
			c0.6,0,1.3-0.2,1.3-1.4V37c0-1,0.3-1.8,0.8-2.3c0.5-0.6,1.2-0.9,2-0.9c0.7,0,1.2,0.2,1.6,0.6c0.3,0.4,0.5,1.1,0.5,2.1v6
			c0,0.4,0.1,0.8,0.3,1c0.2,0.2,0.5,0.4,0.9,0.4c0.4,0,0.7-0.1,0.9-0.4c0.2-0.2,0.3-0.6,0.3-1v-6.2c0-1.1-0.1-2-0.4-2.7
			C109,33,108.5,32.5,107.9,32.1z"/>
		<path class="st0" d="M118.2,31.6c-1,0.1-1.8,0.4-2.5,0.9c-0.3,0.3-0.6,0.6-0.8,1V33c0-0.4-0.1-0.8-0.3-1c-0.2-0.2-0.5-0.4-0.9-0.4
			c-0.4,0-0.7,0.1-0.9,0.4c-0.2,0.2-0.3,0.6-0.3,1v9.6c0,0.4,0.1,0.8,0.3,1c0.2,0.2,0.5,0.4,0.9,0.4c0.4,0,0.7-0.1,1-0.4
			c0.2-0.2,0.3-0.6,0.3-1v-5.4c0-0.9,0.2-1.7,0.7-2.2c0.5-0.5,1.2-0.8,2.1-0.9l0.4,0c0.4,0,0.7-0.2,0.9-0.4c0.2-0.2,0.3-0.5,0.2-0.9
			c0-0.4-0.1-0.7-0.3-0.8C118.8,31.6,118.5,31.5,118.2,31.6z"/>
		<path class="st0" d="M137.6,31.9c-0.2-0.2-0.4-0.3-0.8-0.3c-0.3,0-0.5,0.1-0.7,0.2c-0.2,0.1-0.4,0.4-0.5,0.8l-2.5,7.7l-2.5-7.8
			c-0.1-0.3-0.3-0.6-0.5-0.7c-0.2-0.2-0.5-0.2-0.8-0.2c-0.3,0-0.6,0.1-0.8,0.2c-0.2,0.2-0.4,0.4-0.5,0.7l-2.6,7.7l-2.5-7.6
			c-0.1-0.4-0.3-0.7-0.5-0.9c-0.2-0.2-0.4-0.2-0.7-0.2c-0.3,0-0.6,0.1-0.8,0.2c-0.2,0.2-0.3,0.4-0.4,0.7c0,0.3,0,0.6,0.1,0.9
			l3.2,9.3c0.1,0.4,0.3,0.7,0.6,0.9c0.3,0.2,0.6,0.3,0.9,0.3c0.3,0,0.6-0.1,0.9-0.3c0.2-0.2,0.4-0.5,0.6-0.9l2.4-7l2.4,7
			c0.1,0.4,0.3,0.7,0.6,0.9c0.3,0.2,0.6,0.3,0.9,0.3c0.3,0,0.6-0.1,0.9-0.3c0.2-0.2,0.4-0.5,0.6-0.9l3.2-9.3
			c0.1-0.3,0.2-0.6,0.1-0.9C137.9,32.3,137.8,32.1,137.6,31.9z"/>
	</g>
</g>
</svg>
